<svg version="1.2" xmlns="http://www.w3.org/2000/svg" width="39" height="13"><path fill-rule="evenodd" d="M32.41 6.95c-3.4 2.53-6.3 2.53-9.69 0-2.22-1.65-4.11-1.65-6.33 0-3.36 2.51-6.11 2.51-9.47 0-2.24-1.67-3.76-1.67-6 0L0 5.73c2.72-2.03 5.01-2.11 7.84 0 2.67 1.99 4.64 2.22 7.63 0 2.83-2.11 5.46-2.01 8.17 0 2.78 2.07 4.96 2.15 7.84 0 2.84-2.11 4.69-2.11 7.52 0l-.92 1.22c-2.28-1.69-3.39-1.69-5.67 0zm0-4.15c-3.4 2.53-6.3 2.53-9.69 0-2.22-1.65-4.11-1.65-6.33 0-3.36 2.51-6.11 2.51-9.47 0-2.24-1.66-3.76-1.66-6 0L0 1.58c2.72-2.03 5.01-2.11 7.84 0 2.67 1.99 4.64 2.22 7.63 0 2.83-2.11 5.46-2.01 8.17 0 2.78 2.07 4.96 2.15 7.84 0 2.84-2.11 4.69-2.11 7.52 0l-.92 1.22c-2.28-1.69-3.39-1.69-5.67 0zM7.84 9.88c2.67 1.99 4.64 2.22 7.63 0 2.83-2.11 5.46-2.02 8.17 0 2.78 2.07 4.96 2.15 7.84 0 2.84-2.11 4.69-2.11 7.52 0l-.92 1.22c-2.28-1.69-3.39-1.69-5.67 0-3.4 2.53-6.3 2.53-9.69 0-2.22-1.65-4.11-1.65-6.33 0-3.36 2.51-6.11 2.51-9.47 0-2.24-1.67-3.76-1.67-6 0L0 9.88c2.72-2.03 5.01-2.11 7.84 0z" fill="#fff"/></svg>