<svg version="1.2" xmlns="http://www.w3.org/2000/svg" viewBox="0 0 28 28" width="28" height="28">
	<style>
		.s0 { fill: #ffffff } 
	</style>
	<path id="Shape 1139" fill-rule="evenodd" class="s0" d="m14 28.01c-7.73 0-14-6.27-14-14 0-7.73 6.27-14 14-14 7.73 0 14 6.27 14 14 0 7.73-6.27 14-14 14zm0-25.85c-6.54 0-11.84 5.3-11.84 11.84 0 6.55 5.3 11.85 11.84 11.85 6.55 0 11.85-5.3 11.85-11.85 0-6.54-5.3-11.84-11.85-11.84zm3.15 14.66h-4.27c-0.59 0-1.07-0.48-1.07-1.07v-6.48c0-0.59 0.48-1.07 1.07-1.07 0.59 0 1.07 0.48 1.07 1.07v5.42h3.2c0.59 0 1.07 0.47 1.07 1.06 0 0.59-0.48 1.07-1.07 1.07z"/>
</svg>